<svg id="visual" viewBox="0 0 900 450" width="900" height="450" xmlns="http://www.w3.org/2000/svg" xmlns:xlink="http://www.w3.org/1999/xlink" version="1.1"><rect x="0" y="0" width="900" height="450" fill="#303030"></rect><path d="M0 295L21.5 308.8C43 322.7 86 350.3 128.8 367.2C171.7 384 214.3 390 257.2 391.3C300 392.7 343 389.3 385.8 379.5C428.7 369.7 471.3 353.3 514.2 352.8C557 352.3 600 367.7 642.8 368.8C685.7 370 728.3 357 771.2 361C814 365 857 386 878.5 396.5L900 407L900 0L878.5 0C857 0 814 0 771.2 0C728.3 0 685.7 0 642.8 0C600 0 557 0 514.2 0C471.3 0 428.7 0 385.8 0C343 0 300 0 257.2 0C214.3 0 171.7 0 128.8 0C86 0 43 0 21.5 0L0 0Z" fill="#84cee7"></path><path d="M0 285L21.5 284.8C43 284.7 86 284.3 128.8 283.2C171.7 282 214.3 280 257.2 270C300 260 343 242 385.8 234.7C428.7 227.3 471.3 230.7 514.2 238.3C557 246 600 258 642.8 265.8C685.7 273.7 728.3 277.3 771.2 283C814 288.7 857 296.3 878.5 300.2L900 304L900 0L878.5 0C857 0 814 0 771.2 0C728.3 0 685.7 0 642.8 0C600 0 557 0 514.2 0C471.3 0 428.7 0 385.8 0C343 0 300 0 257.2 0C214.3 0 171.7 0 128.8 0C86 0 43 0 21.5 0L0 0Z" fill="#71c0de"></path><path d="M0 164L21.5 158.8C43 153.7 86 143.3 128.8 140C171.7 136.7 214.3 140.3 257.2 143.2C300 146 343 148 385.8 147.3C428.7 146.7 471.3 143.3 514.2 149C557 154.7 600 169.3 642.8 182.7C685.7 196 728.3 208 771.2 215.8C814 223.7 857 227.3 878.5 229.2L900 231L900 0L878.5 0C857 0 814 0 771.2 0C728.3 0 685.7 0 642.8 0C600 0 557 0 514.2 0C471.3 0 428.7 0 385.8 0C343 0 300 0 257.2 0C214.3 0 171.7 0 128.8 0C86 0 43 0 21.5 0L0 0Z" fill="#5db2d6"></path><path d="M0 125L21.5 110.3C43 95.7 86 66.3 128.8 63.3C171.7 60.3 214.3 83.7 257.2 95.7C300 107.7 343 108.3 385.8 97.8C428.7 87.3 471.3 65.7 514.2 54.5C557 43.3 600 42.7 642.8 48.5C685.7 54.3 728.3 66.7 771.2 67.3C814 68 857 57 878.5 51.5L900 46L900 0L878.5 0C857 0 814 0 771.2 0C728.3 0 685.7 0 642.8 0C600 0 557 0 514.2 0C471.3 0 428.7 0 385.8 0C343 0 300 0 257.2 0C214.3 0 171.7 0 128.8 0C86 0 43 0 21.5 0L0 0Z" fill="#48a5ce"></path></svg>